<svg width="21" height="21" viewBox="0 0 21 21" fill="none" xmlns="http://www.w3.org/2000/svg">
<circle cx="10.5" cy="10.5" r="9.5" stroke="#1D2088" stroke-width="1.5"/>
<path d="M13.5611 7.25H9.93861C9.63111 7.25 9.37611 7.505 9.37611 7.8125C9.37611 8.12 9.63111 8.375 9.93861 8.375H12.2036L6.41361 14.165C6.19611 14.3825 6.19611 14.7425 6.41361 14.96C6.52611 15.0725 6.66861 15.125 6.81111 15.125C6.95361 15.125 7.09611 15.0725 7.20861 14.96L12.9986 9.17V11.435C12.9986 11.7425 13.2536 11.9975 13.5611 11.9975C13.8686 11.9975 14.1236 11.7425 14.1236 11.435V7.8125C14.1236 7.505 13.8686 7.25 13.5611 7.25Z" fill="#1D2088"/>
</svg>
