<svg width="21" height="21" viewBox="0 0 21 21" fill="none" xmlns="http://www.w3.org/2000/svg">
<path fill-rule="evenodd" clip-rule="evenodd" d="M15.2667 7.17355L10.4998 11.3636L5.73333 7.17355C5.92816 7.06597 6.1485 7 6.38641 7H14.6132C14.8508 7 15.0711 7.06597 15.2667 7.17355ZM15.8227 14.2727C15.9319 14.0859 16 13.8736 16 13.6446V8.421C16 8.16531 15.9191 7.9287 15.7849 7.72727L12.3333 10.582L15.8227 14.2727ZM11.8098 10.6364L10.7223 11.6558C10.6587 11.7151 10.5795 11.7447 10.5 11.7447C10.4205 11.7447 10.3413 11.7151 10.2777 11.6558L9.18991 10.6364L5.73333 14.7775C5.94052 14.9166 6.18333 15 6.44593 15H14.5541C14.8166 15 15.0595 14.9166 15.2667 14.7775L11.8098 10.6364ZM5 8.42101C5 8.16531 5.08095 7.9287 5.21521 7.72727L8.66667 10.5814L5.17742 14.2727C5.06783 14.0859 5 13.8736 5 13.6446V8.42101Z" fill="#1D2088"/>
<circle cx="10.5" cy="10.5" r="9.5" stroke="#1D2088" stroke-width="1.5"/>
</svg>
